PathFileType	4	(X/Y/Z)	C:/Users/opensim2020/Desktop/walking_exp_matlab/subject01_walking12_straight_02.trc																																																																																																																																		
DataRate	CameraRate	NumFrames	NumMarkers	Units	OrigDataRate	OrigDataStartFrame	OrigNumFrames																																																																																																																														
100	100	8	44	mm	100	1277	122																																																																																																																														
Frame#	Time	LFHD			RFHD			LBHD			RBHD			C7			T10			CLAV			STRN			RBAK			LSHO			LUPA			LELB			LFRM			LWRA			LWRB			LFIN			RSHO			RUPA			RELB			RFRM			RWRA			RWRB			RFIN			LASI			RASI			LPSI			RPSI			LTHI			LKNE			LTIB			LANK			LHEE			LTOE			RTHI			RKNE			RTIB			RANK			RHEE			RTOE			*39			*40			*41			*42			*43		
		X1	Y1	Z1	X2	Y2	Z2	X3	Y3	Z3	X4	Y4	Z4	X5	Y5	Z5	X6	Y6	Z6	X7	Y7	Z7	X8	Y8	Z8	X9	Y9	Z9	X10	Y10	Z10	X11	Y11	Z11	X12	Y12	Z12	X13	Y13	Z13	X14	Y14	Z14	X15	Y15	Z15	X16	Y16	Z16	X17	Y17	Z17	X18	Y18	Z18	X19	Y19	Z19	X20	Y20	Z20	X21	Y21	Z21	X22	Y22	Z22	X23	Y23	Z23	X24	Y24	Z24	X25	Y25	Z25	X26	Y26	Z26	X27	Y27	Z27	X28	Y28	Z28	X29	Y29	Z29	X30	Y30	Z30	X31	Y31	Z31	X32	Y32	Z32	X33	Y33	Z33	X34	Y34	Z34	X35	Y35	Z35	X36	Y36	Z36	X37	Y37	Z37	X38	Y38	Z38	X39	Y39	Z39	X40	Y40	Z40	X41	Y41	Z41	X42	Y42	Z42	X43	Y43	Z43	X44	Y44	Z44
																																																																																																																																					
31	0.3	-598.80023	1665.29016	-1526.30273	-580.62225	1671.13525	-1414.83215	-715.8891	1625.00305	-1513.40808	-699.99323	1629.8645	-1394.29834	-759.87335	1432.83777	-1471.28101	-804.68585	1140.3606	-1458.0918	-619.02991	1359.99036	-1468.57983	-580.32178	1204.55066	-1474.90967	-820.27863	1238.01367	-1394.84656	-676.23175	1393.03247	-1629.65552	-680.65387	1212.84338	-1721.93103	-655.51385	1061.65308	-1734.66956	-569.06927	987.06335	-1765.875	-440.84415	931.71674	-1758.53772	-486.81958	897.3512	-1776.64343	-411.71506	865.10876	-1796.37451	-682.52979	1388.74829	-1317.07849	-761.69098	1193.90649	-1220.3136	-775.07159	1071.07898	-1217.4502	-769.48303	951.91547	-1186.0061	-713.34418	821.89276	-1204.10815	-756.43323	831.42303	-1164.27893	-733.51923	748.85638	-1165.50977	-640.99768	928.47937	-1572.02173	-621.10413	935.97565	-1355.90479	-821.57025	942.41138	-1500.66528	-805.66193	941.30359	-1356.74927	-721.59546	598.64716	-1606.48938	-758.00366	467.22147	-1586.71716	-844.539	296.87332	-1584.92773	-911.50592	90.34888	-1523.68604	-959.0061	70.0862	-1468.63245	-771.60223	36.10395	-1533.3739	-567.97504	619.8855	-1289.01453	-512.17029	472.78571	-1315.64404	-546.73358	300.63348	-1306.18579	-544.90552	91.71235	-1351.33301	-586.12555	47.86545	-1404.38672	-405.21014	63.80548	-1346.51306	-591.9928	1704.95496	-1436.9856	-1973.07129	1023.4231	3101.95728	-2012.55518	1022.14862	3140.72485	NaN	NaN	NaN	NaN	NaN	NaN
32	0.31	-587.28918	1664.26111	-1525.98511	-569.26331	1669.8501	-1414.40955	-704.40564	1623.76843	-1513.39111	-688.57434	1628.40039	-1394.10706	-748.18481	1431.62073	-1471.36023	-792.99841	1139.17297	-1457.37524	-607.26349	1358.84216	-1468.71228	-568.51251	1203.38	-1475.34766	-808.43835	1236.69812	-1394.73706	-664.48193	1392.04907	-1629.72351	-668.258	1212.19458	-1722.36572	-642.2193	1061.1344	-1735.70679	-554.10681	988.35266	-1766.81958	-424.6452	936.09302	-1759.28174	-469.72784	900.63605	-1777.5282	-393.73276	870.17468	-1797.16016	-670.80682	1387.66431	-1317.01819	-751.26215	1193.11951	-1220.70349	-765.50061	1070.6084	-1218.01501	-761.4455	951.53754	-1186.41589	-706.93915	820.73315	-1204.13245	-749.8222	830.91144	-1164.68665	-728.30554	748.0127	-1165.47925	-630.26123	927.62579	-1572.60071	-608.58356	934.66028	-1356.52307	-810.22369	941.63672	-1499.46375	-793.15015	940.16986	-1355.78137	-715.15515	598.6651	-1607.05933	-753.26648	467.52524	-1587.13757	-842.07928	298.26944	-1585.19043	-910.74713	92.11078	-1523.50391	-958.21307	72.63181	-1468.46741	-771.60211	35.96952	-1533.36365	-559.66809	616.6795	-1289.45483	-501.42453	471.46793	-1317.51624	-527.19147	298.15228	-1307.2478	-512.23895	89.01558	-1351.53052	-550.86395	42.64518	-1404.22168	-370.55164	69.8036	-1348.60083	-580.72711	1703.72961	-1436.52588	-1973.25623	1023.45551	3101.99634	-2012.4696	1022.07898	3140.79297	NaN	NaN	NaN	NaN	NaN	NaN
33	0.32	-575.80115	1663.15833	-1525.53186	-557.89105	1668.63733	-1413.94592	-692.82019	1622.36584	-1513.12878	-677.11755	1626.84741	-1393.91272	-736.50671	1430.349	-1471.30383	-781.13788	1137.8562	-1456.58044	-595.45612	1357.55847	-1468.61841	-556.73444	1202.23926	-1475.51343	-796.49493	1235.32776	-1394.52637	-652.75739	1390.98413	-1629.64526	-655.87195	1211.37708	-1722.68274	-629.08319	1060.45483	-1736.56799	-539.38672	989.4895	-1767.61865	-408.83557	940.23462	-1759.90417	-453.00256	903.77271	-1778.35303	-376.29272	875.14978	-1797.88525	-659.04089	1386.5127	-1316.9353	-740.76318	1192.33728	-1220.92725	-755.71185	1070.01648	-1218.34448	-753.07458	951.01227	-1186.64441	-700.14868	819.52393	-1204.10632	-743.24573	830.3302	-1164.65796	-722.71069	747.13782	-1165.54456	-619.38599	926.83978	-1573.10852	-595.81952	933.29095	-1357.14172	-798.74109	940.85071	-1498.08618	-780.39435	938.99866	-1354.71533	-708.40851	598.81384	-1607.71423	-748.10632	467.91541	-1587.67871	-839.23962	299.91251	-1585.70898	-909.88226	94.10529	-1523.69458	-957.40576	75.42763	-1468.53467	-771.54279	35.95532	-1533.46143	-551.81628	613.33514	-1289.62244	-490.51083	469.99362	-1319.44897	-508.05829	295.98816	-1308.45691	-480.7807	87.45869	-1352.3667	-517.51239	39.02826	-1404.38464	-338.45593	76.34285	-1350.50037	-569.40881	1702.49231	-1436.03723	-1973.17371	1023.44067	3101.90601	-2012.58179	1022.17346	3140.74756	NaN	NaN	NaN	NaN	NaN	NaN
34	0.33	-564.23505	1662.05701	-1524.98975	-546.53033	1667.34668	-1413.35327	-681.30853	1621.00684	-1512.93567	-665.65442	1625.26636	-1393.41565	-724.72345	1429.06335	-1471.13257	-769.1814	1136.48511	-1455.76648	-583.56775	1356.37622	-1468.5697	-544.7475	1201.01855	-1475.65674	-784.43292	1233.85632	-1394.05408	-640.9826	1389.85779	-1629.45874	-643.48322	1210.52832	-1722.8446	-616.01935	1059.64148	-1737.22241	-524.96558	990.44	-1768.26855	-393.39212	943.99176	-1760.36572	-436.72284	906.65991	-1779.03772	-359.32095	879.81061	-1798.50745	-647.20715	1385.23096	-1316.85925	-730.28601	1191.56372	-1221.03333	-745.8017	1069.42297	-1218.50244	-744.53546	950.41675	-1186.85315	-693.06934	818.37347	-1204.11047	-735.9978	829.51892	-1164.95117	-716.63623	746.11212	-1165.74341	-608.32391	925.99921	-1573.51355	-582.81543	931.98193	-1357.7312	-787.07739	940.09314	-1496.75598	-767.49811	937.88434	-1353.59338	-701.30414	598.79163	-1608.36377	-742.22394	468.14731	-1588.24841	-836.03528	301.61194	-1586.52197	-908.89282	96.25023	-1523.90198	-956.27087	78.2299	-1468.59668	-771.53223	35.88626	-1533.59094	-543.97369	609.84833	-1288.78186	-479.49554	468.41791	-1321.00586	-489.1066	294.22205	-1309.52087	-452.05795	86.83219	-1353.09424	-486.66217	36.19843	-1405.25403	-309.08646	82.66256	-1352.14258	-558.15338	1701.12439	-1435.34424	-1973.15662	1023.34674	3101.82861	-2012.48853	1022.04034	3140.65674	NaN	NaN	NaN	NaN	NaN	NaN
35	0.34	-552.72156	1660.93542	-1524.37964	-535.07904	1666.0979	-1412.72498	-669.69183	1619.57788	-1512.47144	-654.10632	1623.72412	-1393.02991	-712.87286	1427.71069	-1470.77637	-757.06604	1135.06909	-1454.81628	-571.60797	1355.12952	-1468.31555	-532.6192	1200.09448	-1475.78235	-772.24847	1232.36267	-1393.45068	-629.22491	1388.72742	-1629.24219	-631.22864	1209.68689	-1723.02124	-603.20721	1058.76489	-1737.74731	-510.86707	991.27368	-1768.85986	-378.39532	947.45947	-1760.77051	-420.90982	909.28497	-1779.59851	-342.89703	884.17944	-1799.01135	-635.33105	1383.99988	-1316.42285	-719.51703	1190.73816	-1220.95911	-735.84772	1068.68762	-1218.78564	-735.82465	949.81683	-1187.05481	-685.32971	817.17523	-1203.896	-728.61383	828.80884	-1164.96997	-710.01587	745.04926	-1165.68494	-597.1203	925.1048	-1573.84534	-569.69232	930.59924	-1358.35962	-775.2287	939.28931	-1495.28259	-754.3866	936.77008	-1352.38806	-693.67499	598.64502	-1608.85889	-735.79059	468.3905	-1588.8468	-832.06812	303.13535	-1587.12036	-907.91711	98.78676	-1524.50122	-955.29254	81.50048	-1469.12634	-771.34082	35.89553	-1533.65479	-535.6347	606.62421	-1287.59607	-468.37314	466.7067	-1322.33655	-470.80557	292.90277	-1310.53552	-425.75696	87.35556	-1354.70215	-458.30191	34.91122	-1406.30994	-282.50269	88.71313	-1354.01611	-546.7702	1699.88245	-1434.72766	-1973.02258	1023.74512	3101.9895	-2012.52307	1022.16821	3140.61084	NaN	NaN	NaN	NaN	NaN	NaN
36	0.35	-541.20422	1659.86877	-1523.81604	-523.61786	1664.82996	-1412.05273	-658.07831	1618.17627	-1512.03149	-642.58899	1622.17102	-1392.47937	-700.94073	1426.38904	-1470.34973	-744.89099	1133.68127	-1453.92102	-559.58801	1353.98169	-1467.96985	-520.51898	1198.8208	-1475.71997	-759.9563	1230.81604	-1392.80774	-617.39703	1387.5332	-1628.83887	-619.03174	1208.79468	-1723.04968	-590.50952	1057.84436	-1738.10388	-497.09802	991.91925	-1769.31226	-363.77304	950.66144	-1761.08301	-405.56775	911.64197	-1780.07959	-327.05612	888.15979	-1799.36609	-623.25476	1382.65991	-1316.0033	-708.5495	1189.81128	-1220.72058	-725.55347	1067.95667	-1218.74585	-726.72064	949.02582	-1187.11572	-677.18024	816.03766	-1203.54504	-720.76392	827.99573	-1165.13318	-702.80927	744.17371	-1165.81787	-585.79688	924.25916	-1574.27014	-556.49213	929.07001	-1358.87073	-763.21582	938.43768	-1493.80603	-741.16278	935.63623	-1351.16089	-685.64575	598.54816	-1609.49048	-728.59448	468.32944	-1589.4126	-827.14581	304.51279	-1587.46619	-906.42181	101.22466	-1525.06592	-954.26208	85.28153	-1469.98779	-771.32172	35.86623	-1533.89038	-526.21027	604.0589	-1286.74438	-457.43094	465.18091	-1323.34802	-453.62717	291.82489	-1311.54272	-402.17743	87.38087	-1356.21997	-432.84955	34.18339	-1408.03198	-258.78687	93.83364	-1356.09436	-535.3421	1698.72583	-1434.03479	-1973.07568	1023.87726	3102.08667	-2012.42725	1021.95544	3140.68628	NaN	NaN	NaN	NaN	NaN	NaN
37	0.36	-529.64526	1658.80688	-1523.05469	-512.13617	1663.72339	-1411.28931	-646.4574	1616.8186	-1511.47668	-630.99518	1620.66174	-1391.81311	-688.93707	1425.05408	-1469.74438	-732.57123	1132.29004	-1453.09949	-547.44049	1352.7865	-1467.49219	-508.13464	1197.7345	-1475.58264	-747.5274	1229.25952	-1392.14319	-605.53302	1386.40454	-1628.42017	-606.94867	1207.90393	-1722.8938	-577.96094	1056.98767	-1738.41455	-483.19766	992.44983	-1769.27917	-349.60858	953.28967	-1761.13477	-390.79486	913.66699	-1780.29712	-311.69034	891.62158	-1799.57764	-611.14838	1381.31067	-1315.41479	-697.58374	1188.91504	-1220.48157	-715.15985	1067.10303	-1218.66553	-717.44971	948.20477	-1187.17004	-668.73828	815.02539	-1203.31519	-712.36841	827.14331	-1165.34106	-695.47729	743.06598	-1165.69604	-574.16742	923.33453	-1574.64807	-543.23798	927.586	-1359.53687	-750.95325	937.54517	-1492.32117	-727.77582	934.50739	-1349.85083	-676.89539	598.29047	-1610.03076	-720.65717	468.35974	-1590.08032	-822.35004	306.42389	-1588.58862	-904.90521	104.0801	-1526.05774	-952.91461	89.30925	-1470.99463	-771.18591	35.83847	-1534.10889	-515.33563	601.935	-1286.28796	-446.22971	463.72443	-1324.19958	-437.65161	290.74249	-1312.8324	-381.40167	87.84292	-1358.32776	-410.72876	33.79068	-1410.11255	-237.90468	97.56391	-1358.60693	-523.60522	1697.91064	-1433.10388	-1973.0542	1023.31042	3101.83057	-2012.43652	1021.93524	3140.66235	NaN	NaN	NaN	NaN	NaN	NaN
38	0.37	-518.01471	1657.84277	-1522.25269	-500.61368	1662.73608	-1410.50525	-634.80505	1615.50818	-1510.81372	-619.33057	1619.25745	-1391.15063	-676.85303	1423.73462	-1468.85254	-720.10968	1130.94312	-1452.28784	-535.21173	1351.70825	-1466.9613	-495.64978	1196.70544	-1475.43054	-734.94818	1227.66064	-1391.41931	-593.61237	1385.2887	-1627.77576	-594.99237	1206.97961	-1722.44653	-565.56281	1056.15137	-1738.51904	-469.89127	992.81732	-1769.35669	-335.92242	955.67432	-1761.19238	-376.43445	915.3407	-1780.39587	-296.92035	894.45502	-1799.57336	-598.8371	1380.01355	-1314.6886	-686.14899	1187.7002	-1220.0592	-704.58386	1066.26367	-1218.49695	-707.76849	947.31006	-1187.1095	-660.31036	813.86865	-1203.28638	-703.58594	826.08026	-1165.25085	-687.73199	741.87482	-1166.08691	-562.38007	922.39398	-1574.9812	-529.92853	926.18256	-1360.07397	-738.53412	936.58624	-1490.86023	-714.41913	933.38855	-1348.4032	-667.57233	597.9715	-1610.58972	-712.07611	468.17636	-1590.78174	-816.62396	308.039	-1589.43774	-902.99451	107.03764	-1527.06091	-951.38879	93.76676	-1472.28625	-771.01831	35.85833	-1534.32373	-503.44135	600.53101	-1286.45239	-434.54773	462.57761	-1325.17908	-422.931	289.81415	-1314.43872	-363.34995	87.90508	-1360.43164	-392.17404	33.51383	-1412.17114	-219.81526	99.245	-1361.55298	-512.58264	1696.49475	-1432.41223	-1973.10583	1023.56299	3101.98926	-2012.5387	1022.01532	3140.70508	NaN	NaN	NaN	NaN	NaN	NaN
